<?xml version="1.0" encoding="UTF-8"?>
<svg version="1.1" xmlns="http://www.w3.org/2000/svg" width="500" height="500">
<path d="M0 0 C165 0 330 0 500 0 C500 165 500 330 500 500 C335 500 170 500 0 500 C0 335 0 170 0 0 Z " fill="#FEFEFE" transform="translate(0,0)"/>
<path d="M0 0 C1.5631897 0.00785522 1.5631897 0.00785522 3.15795898 0.01586914 C4.28266602 0.0190918 5.40737305 0.02231445 6.56616211 0.02563477 C7.75016602 0.03401367 8.93416992 0.04239258 10.15405273 0.05102539 C11.34192383 0.05553711 12.52979492 0.06004883 13.75366211 0.06469727 C16.69967499 0.07652864 19.64558954 0.09301252 22.59155273 0.11352539 C24.77757778 3.71353374 25.17733331 7.36476968 25.62670898 11.46899414 C25.7520829 12.5223571 25.7520829 12.5223571 25.87998962 13.59700012 C26.14508649 15.8309131 26.40029563 18.06579812 26.65405273 20.30102539 C26.91248869 22.54680262 27.17308828 24.79226052 27.43882751 27.03718567 C27.67853939 29.06618333 27.91073446 31.09606479 28.14257812 33.12597656 C28.2705415 35.9905706 28.2705415 35.9905706 29.59155273 37.11352539 C29.70225098 36.20586426 29.81294922 35.29820312 29.92700195 34.36303711 C30.34329559 30.97420766 30.76513575 27.58616249 31.19067383 24.19848633 C31.37321795 22.73619487 31.55359038 21.27363051 31.73168945 19.81079102 C31.98906823 17.69999749 32.25441568 15.59033067 32.52124023 13.48071289 C32.67834473 12.21340332 32.83544922 10.94609375 32.99731445 9.64038086 C33.59155273 6.11352539 33.59155273 6.11352539 35.59155273 0.11352539 C43.18155273 0.11352539 50.77155273 0.11352539 58.59155273 0.11352539 C57.97201746 9.78690948 57.0422897 19.33769485 55.81420898 28.95336914 C55.64075773 30.33228224 55.46762345 31.71123524 55.29478455 33.09022522 C54.84350967 36.68339979 54.38771495 40.27598659 53.93096924 43.86846924 C53.56285887 46.76978261 53.19794591 49.67149378 52.83321476 52.5732336 C50.98633996 67.26545051 50.98633996 67.26545051 50.07009888 74.38839722 C49.72942136 77.04031996 49.39415388 79.69263535 49.06295776 82.34573364 C48.88706132 83.72612008 48.71097032 85.10648175 48.53466797 86.48681641 C48.29948708 88.35503807 48.29948708 88.35503807 48.05955505 90.26100159 C47.59155273 93.11352539 47.59155273 93.11352539 46.59155273 94.11352539 C44.66487766 94.20100746 42.73503412 94.22049873 40.80639648 94.21118164 C39.05166016 94.20634766 39.05166016 94.20634766 37.26147461 94.20141602 C36.02977539 94.19303711 34.79807617 94.1846582 33.52905273 94.17602539 C31.67570312 94.16925781 31.67570312 94.16925781 29.78491211 94.16235352 C26.72041157 94.15052147 23.65600552 94.13403712 20.59155273 94.11352539 C18.7948058 86.12618955 17.82021991 78.12449627 16.96655273 69.98852539 C16.76545898 68.12454102 16.76545898 68.12454102 16.56030273 66.22290039 C16.23334355 63.18685083 15.91051969 60.15042321 15.59155273 57.11352539 C15.26155273 57.11352539 14.93155273 57.11352539 14.59155273 57.11352539 C14.48085449 58.05671631 14.37015625 58.99990723 14.25610352 59.97167969 C13.84038355 63.4854002 13.4184845 66.99826551 12.99243164 70.51074219 C12.80962622 72.02835072 12.62925696 73.54625483 12.45141602 75.06445312 C12.19470711 77.2522153 11.92912769 79.43874921 11.66186523 81.62524414 C11.58469269 82.29939865 11.50752014 82.97355316 11.42800903 83.6681366 C10.93714428 87.60015683 10.10114326 90.33954908 8.59155273 94.11352539 C1.00155273 94.11352539 -6.58844727 94.11352539 -14.40844727 94.11352539 C-13.84221177 84.40172872 -12.96216987 74.87534484 -11.59594727 65.23852539 C-11.23610995 62.62546852 -10.87762459 60.01227367 -10.52172852 57.39868164 C-10.43020508 56.72870651 -10.33868164 56.05873138 -10.24438477 55.36845398 C-8.99244634 46.13986172 -7.90353571 36.89101919 -6.80371094 27.64331055 C-6.34491558 23.79924544 -5.87991748 19.95605642 -5.40844727 16.11352539 C-5.27992371 15.06584991 -5.27992371 15.06584991 -5.14880371 13.99700928 C-4.88888508 11.89844888 -4.62238291 9.80083128 -4.35375977 7.70336914 C-4.19665527 6.46321045 -4.03955078 5.22305176 -3.87768555 3.9453125 C-3.24931104 0.15316063 -3.24931104 0.15316063 0 0 Z " fill="#76C7FA" transform="translate(122.408447265625,153.886474609375)"/>
<path d="M0 0 C5.16201173 3.844283 7.57658312 8.61619427 9.0390625 14.81640625 C9.79973206 21.94166538 8.77300863 28.5520783 7.56494141 35.56103516 C6.5333404 41.94699981 5.88759598 48.38364445 5.18359375 54.8125 C3.70162206 67.76780092 1.59643006 77.49692682 -8.71875 86.12109375 C-17.17166951 92.51232557 -26.74499605 92.70794118 -36.9609375 91.81640625 C-44.21050956 89.87624663 -48.12548926 86.17077369 -51.90234375 79.8046875 C-57.61085109 69.08280472 -53.7159685 51.52297117 -52.15429688 39.80688477 C-51.83311801 37.35740334 -51.54887724 34.90529463 -51.265625 32.45117188 C-49.87230791 21.25557669 -47.56906501 11.02825528 -39.2109375 2.81640625 C-27.94652057 -5.87632305 -12.38513141 -7.47548769 0 0 Z " fill="#FE3948" transform="translate(273.9609375,264.18359375)"/>
<path d="M0 0 C0.9583374 0.00523682 1.9166748 0.01047363 2.90405273 0.01586914 C4.45576172 0.02070313 4.45576172 0.02070313 6.03881836 0.02563477 C7.12743164 0.03401367 8.21604492 0.04239258 9.33764648 0.05102539 C10.97636719 0.05779297 10.97636719 0.05779297 12.64819336 0.06469727 C15.35723144 0.07652713 18.06616248 0.09300996 20.77514648 0.11352539 C20.35622867 12.33436914 19.03371146 24.09625515 16.77514648 36.11352539 C19.41514648 36.11352539 22.05514648 36.11352539 24.77514648 36.11352539 C24.82413086 35.14415039 24.87311523 34.17477539 24.92358398 33.17602539 C25.31916506 25.88117997 25.84959677 18.61922315 26.71264648 11.36352539 C26.94274414 9.42219727 26.94274414 9.42219727 27.17749023 7.44165039 C27.77514648 4.11352539 27.77514648 4.11352539 29.77514648 0.11352539 C37.36514648 0.11352539 44.95514648 0.11352539 52.77514648 0.11352539 C52.77514648 11.3538882 52.77514648 11.3538882 52.04077148 16.49243164 C51.80076416 18.22046021 51.80076416 18.22046021 51.5559082 19.98339844 C51.38075684 21.20196533 51.20560547 22.42053223 51.02514648 23.67602539 C50.65624297 26.33986736 50.28883122 29.00387144 49.92358398 31.66821289 C49.82896881 32.3544725 49.73435364 33.04073212 49.63687134 33.74778748 C48.56125486 41.58904636 47.59827562 49.4434829 46.65014648 57.30102539 C46.56578339 57.99713928 46.48142029 58.69325317 46.39450073 59.41046143 C45.28867693 68.55092205 44.23217212 77.69515551 43.37036133 86.86230469 C42.87897752 91.90586332 42.87897752 91.90586332 41.77514648 94.11352539 C33.85514648 94.11352539 25.93514648 94.11352539 17.77514648 94.11352539 C18.26204676 85.83622062 18.87268702 77.60621178 19.77514648 69.36352539 C19.89962158 68.20264404 19.89962158 68.20264404 20.02661133 67.01831055 C20.37806075 63.90497965 20.78127438 61.09514169 21.77514648 58.11352539 C19.13514648 58.11352539 16.49514648 58.11352539 13.77514648 58.11352539 C13.81510742 59.32008789 13.85506836 60.52665039 13.89624023 61.76977539 C13.89499125 68.14458472 12.84599786 74.33313618 11.83764648 80.61352539 C11.65524414 81.80461914 11.4728418 82.99571289 11.28491211 84.22290039 C9.91068304 92.97798883 9.91068304 92.97798883 8.77514648 94.11352539 C7.06742291 94.20066371 5.35616 94.22052546 3.64624023 94.21118164 C2.09453125 94.20634766 2.09453125 94.20634766 0.51147461 94.20141602 C-0.57713867 94.19303711 -1.66575195 94.1846582 -2.78735352 94.17602539 C-4.42607422 94.16925781 -4.42607422 94.16925781 -6.09790039 94.16235352 C-8.80693847 94.15052366 -11.51586951 94.13404082 -14.22485352 94.11352539 C-14.56049263 85.98360017 -13.42922333 78.10702157 -12.3163147 70.0776062 C-11.73087672 65.85291958 -11.16432884 61.62569095 -10.59594727 57.39868164 C-10.48002731 56.54013077 -10.36410736 55.6815799 -10.24467468 54.79701233 C-8.91460902 44.89826005 -7.7328524 34.98227329 -6.56958008 25.06274414 C-3.61979183 0.18470352 -3.61979183 0.18470352 0 0 Z " fill="#76C7FA" transform="translate(403.224853515625,153.886474609375)"/>
<path d="M0 0 C4.54691589 2.8562818 7.89683804 6.11255669 9.57421875 11.37109375 C10.56663999 17.49861203 10.37850263 23.82021674 10 30 C9 31 9 31 6.68334961 31.11352539 C5.68311768 31.10828857 4.68288574 31.10305176 3.65234375 31.09765625 C2.57275391 31.09443359 1.49316406 31.09121094 0.38085938 31.08789062 C-0.75544922 31.07951172 -1.89175781 31.07113281 -3.0625 31.0625 C-4.20267578 31.05798828 -5.34285156 31.05347656 -6.51757812 31.04882812 C-9.34507418 31.0369976 -12.17254345 31.0190615 -15 31 C-15.495 25.555 -15.495 25.555 -16 20 C-17.65 20.33 -19.3 20.66 -21 21 C-22.84527125 29.11993857 -23.88162555 37.32030854 -24.85986328 45.57885742 C-25.126605 47.82602129 -25.40078032 50.07219284 -25.67578125 52.31835938 C-25.84939672 53.76036395 -26.02258902 55.20241956 -26.1953125 56.64453125 C-26.35016113 57.93721924 -26.50500977 59.22990723 -26.66455078 60.56176758 C-26.94241126 63.4097364 -27.07042034 66.14319053 -27 69 C-25.35 69.33 -23.7 69.66 -22 70 C-19.97649676 66.96474514 -19.67875982 65.80573798 -19.375 62.3125 C-19.30023438 61.50425781 -19.22546875 60.69601563 -19.1484375 59.86328125 C-19.09945312 59.24839844 -19.05046875 58.63351563 -19 58 C-19.99 58 -20.98 58 -22 58 C-22.12009261 52.23555464 -21.99809046 46.68911563 -21 41 C-19 39 -19 39 -16.29443359 38.77294922 C-15.17375488 38.78342285 -14.05307617 38.79389648 -12.8984375 38.8046875 C-11.68671875 38.81113281 -10.475 38.81757813 -9.2265625 38.82421875 C-7.32003906 38.84935547 -7.32003906 38.84935547 -5.375 38.875 C-4.09625 38.88402344 -2.8175 38.89304688 -1.5 38.90234375 C1.66685167 38.92597697 4.83333424 38.95892371 8 39 C6.64535247 73.70700404 6.64535247 73.70700404 -2.890625 84.05078125 C-11.4334853 91.92521164 -19.80123832 93.60217363 -31.1953125 93.3359375 C-37.64687173 92.76629264 -42.42985671 90.70707716 -46.90625 85.9921875 C-55.66372611 74.79748926 -52.11023157 58.1728213 -50.515625 44.87304688 C-50.40927734 44.01960693 -50.30292969 43.16616699 -50.19335938 42.28686523 C-49.87341336 39.67454529 -49.58870653 37.0597993 -49.3046875 34.44335938 C-47.94434129 22.82840172 -45.93313167 12.55220669 -37.25 4 C-26.75786761 -4.09675877 -12.02872203 -6.33719948 0 0 Z " fill="#76C7FA" transform="translate(231,156)"/>
<path d="M0 0 C4.39011709 3.33807102 7.40517587 6.65396982 9 12 C9.18802195 14.77332384 9.28005773 17.41968391 9.25 20.1875 C9.26160156 21.27321289 9.26160156 21.27321289 9.2734375 22.38085938 C9.25347222 27.74652778 9.25347222 27.74652778 7 30 C4.66162109 30.22705078 4.66162109 30.22705078 1.7734375 30.1953125 C0.2265625 30.18564453 0.2265625 30.18564453 -1.3515625 30.17578125 C-2.97191406 30.15064453 -2.97191406 30.15064453 -4.625 30.125 C-5.71296875 30.11597656 -6.8009375 30.10695313 -7.921875 30.09765625 C-10.61467649 30.07403518 -13.30736535 30.03816333 -16 30 C-16.495 24.555 -16.495 24.555 -17 19 C-21.63019987 19.4452998 -21.63019987 19.4452998 -23 21 C-23.4469419 23.84365593 -23.83779317 26.67555314 -24.19140625 29.53125 C-24.30097153 30.39633179 -24.4105368 31.26141357 -24.52342224 32.15270996 C-24.75500823 33.99183416 -24.98435597 35.83124134 -25.21166992 37.67089844 C-25.55769512 40.46125337 -25.91408927 43.25014403 -26.27148438 46.0390625 C-26.49542809 47.82804545 -26.71875422 49.61710583 -26.94140625 51.40625 C-27.10075401 52.64429382 -27.10075401 52.64429382 -27.26332092 53.90734863 C-27.92020328 59.31099896 -28.0923436 64.55615739 -28 70 C-25.525 69.505 -25.525 69.505 -23 69 C-22.01 65.04 -21.02 61.08 -20 57 C-20.99 57 -21.98 57 -23 57 C-22.88638398 54.20743781 -22.7596411 51.41655882 -22.625 48.625 C-22.5940625 47.8309375 -22.563125 47.036875 -22.53125 46.21875 C-22.2265625 40.2265625 -22.2265625 40.2265625 -20 38 C-17.40209961 37.75708008 -17.40209961 37.75708008 -14.15234375 37.76953125 C-12.99025391 37.77146484 -11.82816406 37.77339844 -10.63085938 37.77539062 C-9.41205078 37.78763672 -8.19324219 37.79988281 -6.9375 37.8125 C-5.10348633 37.8134668 -5.10348633 37.8134668 -3.23242188 37.81445312 C5.85988944 37.85988944 5.85988944 37.85988944 7 39 C6.90130826 53.58170457 5.06013368 69.99637281 -3.1875 82.25 C-10.38807989 89.290567 -18.8773902 92.02979571 -28.8125 92.4375 C-36.30164319 92.3179924 -42.0409729 90.57529162 -47.65234375 85.5078125 C-52.3787144 80.21975722 -53.33565573 75.15654024 -53.23828125 68.26953125 C-53.23234451 67.52612991 -53.22640778 66.78272858 -53.22029114 66.01679993 C-53.09802744 58.57455334 -52.37625137 51.23142444 -51.45581055 43.8503418 C-51.18555193 41.6717967 -50.93459539 39.49160812 -50.68554688 37.31054688 C-49.04383216 23.39221562 -47.40534702 12.40534702 -37.25 2.25 C-25.86936427 -5.62890166 -12.33066472 -6.72581712 0 0 Z " fill="#FE3948" transform="translate(336,264)"/>
<path d="M0 0 C5.49466622 3.24021015 9.45017062 6.6055612 11.375 12.8125 C11.53775028 15.60408104 11.6100862 18.27745509 11.5625 21.0625 C11.56185547 21.7946875 11.56121094 22.526875 11.56054688 23.28125 C11.515625 28.671875 11.515625 28.671875 10.375 29.8125 C8.66727642 29.89963831 6.95601351 29.91950007 5.24609375 29.91015625 C4.21162109 29.90693359 3.17714844 29.90371094 2.11132812 29.90039062 C1.02271484 29.89201172 -0.06589844 29.88363281 -1.1875 29.875 C-2.8262207 29.86823242 -2.8262207 29.86823242 -4.49804688 29.86132812 C-7.20708495 29.84949826 -9.91601599 29.83301543 -12.625 29.8125 C-13.12 25.3575 -13.12 25.3575 -13.625 20.8125 C-15.275 21.1425 -16.925 21.4725 -18.625 21.8125 C-19.15273807 24.82814611 -19.15860853 26.97082882 -17.48828125 29.60546875 C-12.93124787 34.95694863 -7.61856622 39.61111012 -2.39453125 44.296875 C2.81566957 49.02941284 6.66631162 52.88583498 7.69921875 60.06640625 C8.10400176 68.76226186 5.70666732 77.40014103 0.25 84.25 C-6.59360134 91.34487827 -15.16486845 93.93163407 -24.75 94.1875 C-31.65564239 94.2218356 -37.08480643 93.09307345 -42.625 88.8125 C-47.7348943 83.39435222 -48.79073651 78.4114414 -48.75 71.1875 C-48.75386719 70.49398437 -48.75773437 69.80046875 -48.76171875 69.0859375 C-48.75166646 63.93916646 -48.75166646 63.93916646 -47.625 62.8125 C-45.91727642 62.72536169 -44.20601351 62.70549993 -42.49609375 62.71484375 C-40.94438477 62.71967773 -40.94438477 62.71967773 -39.36132812 62.72460938 C-38.27271484 62.73298828 -37.18410156 62.74136719 -36.0625 62.75 C-34.4237793 62.75676758 -34.4237793 62.75676758 -32.75195312 62.76367188 C-30.04291505 62.77550174 -27.33398401 62.79198457 -24.625 62.8125 C-24.295 65.4525 -23.965 68.0925 -23.625 70.8125 C-21.15 70.3175 -21.15 70.3175 -18.625 69.8125 C-18.11985163 67.56023862 -18.11985163 67.56023862 -18.625 64.8125 C-20.57733257 62.65481537 -22.42514567 60.86669825 -24.625 59 C-25.82236018 57.93573408 -27.01897584 56.87062994 -28.21484375 55.8046875 C-29.35155681 54.80728518 -30.48827509 53.80988881 -31.625 52.8125 C-38.43171117 46.71725474 -43.01323607 41.61151224 -44 32.2578125 C-44.3023396 22.86638875 -43.05705261 15.12743334 -37.375 7.5 C-27.56110028 -2.09085654 -12.87188172 -6.14603361 0 0 Z " fill="#76C6FA" transform="translate(379.625,155.1875)"/>
<path d="M0 0 C1.35568336 0.00333092 1.35568336 0.00333092 2.73875427 0.00672913 C3.75973709 0.00680466 4.78071991 0.00688019 5.8326416 0.00695801 C6.94304306 0.01211929 8.05344452 0.01728058 9.19749451 0.02259827 C10.89336952 0.02472069 10.89336952 0.02472069 12.62350464 0.02688599 C16.25105891 0.03250433 19.8785525 0.04505994 23.50608826 0.05775452 C25.95856133 0.06276715 28.41103536 0.06733047 30.86351013 0.07142639 C36.89022371 0.08247971 42.91690165 0.09923568 48.94358826 0.12025452 C48.82921174 2.85024128 48.7024742 5.57871271 48.56858826 8.30775452 C48.52218201 9.46114319 48.52218201 9.46114319 48.47483826 10.63783264 C48.43616638 11.38871155 48.39749451 12.13959045 48.35765076 12.91322327 C48.32622986 13.59924622 48.29480896 14.28526917 48.26243591 14.99208069 C47.94358826 17.12025452 47.94358826 17.12025452 45.94358826 22.12025452 C37.03358826 22.12025452 28.12358826 22.12025452 18.94358826 22.12025452 C18.61358826 26.74025452 18.28358826 31.36025452 17.94358826 36.12025452 C22.89358826 36.12025452 27.84358826 36.12025452 32.94358826 36.12025452 C32.82884359 38.66275472 32.70211855 41.2037279 32.56858826 43.74525452 C32.52218201 44.81453186 32.52218201 44.81453186 32.47483826 45.90541077 C32.43616638 46.60794983 32.39749451 47.31048889 32.35765076 48.03431702 C32.32622986 48.67320862 32.29480896 49.31210022 32.26243591 49.97035217 C31.94358826 52.12025452 31.94358826 52.12025452 29.94358826 58.12025452 C24.99358826 58.12025452 20.04358826 58.12025452 14.94358826 58.12025452 C14.61358826 62.74025452 14.28358826 67.36025452 13.94358826 72.12025452 C22.52358826 72.12025452 31.10358826 72.12025452 39.94358826 72.12025452 C39.94358826 83.47410067 39.94358826 83.47410067 39.50608826 87.62025452 C39.42487732 88.43494202 39.34366638 89.24962952 39.25999451 90.08900452 C38.94358826 92.12025452 38.94358826 92.12025452 37.94358826 94.12025452 C21.11358826 94.12025452 4.28358826 94.12025452 -13.05641174 94.12025452 C-13.98964945 89.45406601 -13.86753037 86.06587856 -13.20094299 81.47962952 C-13.09934875 80.7325322 -12.99775452 79.98543488 -12.89308167 79.21569824 C-12.67335567 77.60571032 -12.4499749 75.99621779 -12.22331238 74.38719177 C-11.62018644 70.10381871 -11.0437947 65.8168125 -10.46266174 61.53041077 C-10.28414421 60.22279533 -10.28414421 60.22279533 -10.10202026 58.88876343 C-8.94284104 50.37137192 -7.89126362 41.84249573 -6.86891174 33.30775452 C-6.70358848 31.93633026 -6.53822458 30.56491091 -6.37281799 29.1934967 C-5.69800468 23.57330568 -5.03262526 17.95240829 -4.40016174 12.32728577 C-4.30759094 11.51042297 -4.21502014 10.69356018 -4.11964417 9.85194397 C-3.89217414 7.82730567 -3.67118867 5.80194143 -3.45094299 3.77650452 C-2.91534273 0.17048295 -2.91534273 0.17048295 0 0 Z " fill="#76C7FA" transform="translate(64.05641174316406,153.87974548339844)"/>
<path d="M0 0 C0.9583374 0.00523682 1.9166748 0.01047363 2.90405273 0.01586914 C4.45576172 0.02070313 4.45576172 0.02070313 6.03881836 0.02563477 C7.12743164 0.03401367 8.21604492 0.04239258 9.33764648 0.05102539 C10.97636719 0.05779297 10.97636719 0.05779297 12.64819336 0.06469727 C15.35723144 0.07652713 18.06616248 0.09300996 20.77514648 0.11352539 C21.04046088 8.38401538 20.00965827 16.42908984 18.96264648 24.61352539 C18.77939508 26.0766724 18.59670261 27.53988952 18.41455078 29.00317383 C18.13806005 31.22261329 17.86104295 33.44197647 17.58180237 35.66107178 C16.58436878 43.58833667 15.65146675 51.52314557 14.72705078 59.45922852 C14.61530518 60.40217773 14.50355957 61.34512695 14.38842773 62.31665039 C14.29343994 63.12779297 14.19845215 63.93893555 14.10058594 64.7746582 C13.75799308 67.23680344 13.26266489 69.67593337 12.77514648 72.11352539 C21.68514648 72.11352539 30.59514648 72.11352539 39.77514648 72.11352539 C40.73633797 76.91948284 40.55813114 80.61236344 39.90014648 85.36352539 C39.80862305 86.09571289 39.71709961 86.82790039 39.62280273 87.58227539 C38.91377255 92.97489932 38.91377255 92.97489932 37.77514648 94.11352539 C36.14839871 94.20692973 34.51760597 94.2309771 32.88818359 94.22705078 C31.84718002 94.22697525 30.80617645 94.22689972 29.73362732 94.2268219 C28.60135208 94.22166061 27.46907684 94.21649933 26.30249023 94.21118164 C25.14971085 94.20976669 23.99693146 94.20835175 22.80921936 94.20689392 C19.11033585 94.20127544 15.41151184 94.18871981 11.71264648 94.17602539 C9.21199631 94.17101277 6.7113452 94.16644945 4.21069336 94.16235352 C-1.9345094 94.15130001 -8.07967721 94.13454391 -14.22485352 94.11352539 C-13.68624194 84.40833853 -12.7773685 74.8668267 -11.41235352 65.23852539 C-11.0525162 62.62546852 -10.69403084 60.01227367 -10.33813477 57.39868164 C-10.24661133 56.72870651 -10.15508789 56.05873138 -10.06079102 55.36845398 C-8.80885259 46.13986172 -7.71994196 36.89101919 -6.62011719 27.64331055 C-6.16132183 23.79924544 -5.69632373 19.95605642 -5.22485352 16.11352539 C-5.09632996 15.06584991 -5.09632996 15.06584991 -4.96520996 13.99700928 C-4.70529133 11.89844888 -4.43878916 9.80083128 -4.17016602 7.70336914 C-4.01306152 6.46321045 -3.85595703 5.22305176 -3.6940918 3.9453125 C-3.06626388 0.1564592 -3.06626388 0.1564592 0 0 Z " fill="#76C7FA" transform="translate(253.224853515625,153.886474609375)"/>
<path d="M0 0 C0.9583374 0.00523682 1.9166748 0.01047363 2.90405273 0.01586914 C4.45576172 0.02070313 4.45576172 0.02070313 6.03881836 0.02563477 C7.12743164 0.03401367 8.21604492 0.04239258 9.33764648 0.05102539 C10.97636719 0.05779297 10.97636719 0.05779297 12.64819336 0.06469727 C15.35723144 0.07652713 18.06616248 0.09300996 20.77514648 0.11352539 C21.08372493 9.10604502 20.11492153 17.84120684 18.96264648 26.73852539 C18.77927394 28.19180965 18.59658367 29.64518015 18.41455078 31.09863281 C18.13832691 33.30197015 17.86144554 35.50520843 17.58180237 37.70811462 C16.99063225 42.36544372 16.42380986 47.02498076 15.87670898 51.68774414 C15.74240479 52.83227051 15.60810059 53.97679687 15.46972656 55.15600586 C15.22080636 57.28638106 14.97318269 59.41690828 14.72705078 61.54760742 C14.61530518 62.49361816 14.50355957 63.43962891 14.38842773 64.41430664 C14.29343994 65.23068604 14.19845215 66.04706543 14.10058594 66.88818359 C13.77514648 69.11352539 13.77514648 69.11352539 12.77514648 73.11352539 C22.01514648 73.11352539 31.25514648 73.11352539 40.77514648 73.11352539 C39.27514648 92.61352539 39.27514648 92.61352539 37.77514648 94.11352539 C36.17903667 94.20686244 34.5788122 94.23097911 32.97998047 94.22705078 C31.95899765 94.22697525 30.93801483 94.22689972 29.88609314 94.2268219 C28.77569168 94.22166061 27.66529022 94.21649933 26.52124023 94.21118164 C25.39065689 94.20976669 24.26007355 94.20835175 23.0952301 94.20689392 C19.46767583 94.20127558 15.84018225 94.18871997 12.21264648 94.17602539 C9.76017341 94.17101275 7.30769938 94.16644944 4.85522461 94.16235352 C-1.17148897 94.15130019 -7.19816691 94.13454423 -13.22485352 94.11352539 C-14.23233264 89.6773266 -14.01838078 85.93811746 -13.36938477 81.47290039 C-13.26779053 80.72580307 -13.16619629 79.97870575 -13.06152344 79.20896912 C-12.84179745 77.59898119 -12.61841667 75.98948867 -12.39175415 74.38046265 C-11.78862822 70.09708958 -11.21223647 65.81008338 -10.63110352 61.52368164 C-10.45258598 60.21606621 -10.45258598 60.21606621 -10.27046204 58.8820343 C-9.11128281 50.36464279 -8.05970539 41.8357666 -7.03735352 33.30102539 C-6.87203026 31.92960114 -6.70666635 30.55818178 -6.54125977 29.18676758 C-5.86644645 23.56657655 -5.20106703 17.94567916 -4.56860352 12.32055664 C-4.47603271 11.50369385 -4.38346191 10.68683105 -4.28808594 9.84521484 C-4.06061591 7.82057654 -3.83963045 5.79521231 -3.61938477 3.76977539 C-3.08282656 0.15730433 -3.08282656 0.15730433 0 0 Z " fill="#FE3948" transform="translate(173.224853515625,260.886474609375)"/>
<path d="M0 0 C0.9583374 0.00523682 1.9166748 0.01047363 2.90405273 0.01586914 C4.45576172 0.02070313 4.45576172 0.02070313 6.03881836 0.02563477 C7.12743164 0.03401367 8.21604492 0.04239258 9.33764648 0.05102539 C10.97636719 0.05779297 10.97636719 0.05779297 12.64819336 0.06469727 C15.35723144 0.07652713 18.06616248 0.09300996 20.77514648 0.11352539 C20.99184531 7.86467575 20.13989683 15.30688092 19.15014648 22.98852539 C18.78403878 25.8918195 18.42210346 28.79562928 18.06030273 31.69946289 C17.96140244 32.48943665 17.86250214 33.2794104 17.76060486 34.09332275 C16.86924559 41.25425786 16.03552502 48.42144413 15.20874023 55.59008789 C15.0079184 57.32523148 15.0079184 57.32523148 14.80303955 59.09542847 C14.26195131 63.77075758 13.72088795 68.4460735 13.18719482 73.12225342 C12.81022594 76.42188739 12.42796629 79.72087044 12.04467773 83.01977539 C11.93127548 84.02553619 11.81787323 85.031297 11.70103455 86.0675354 C11.59376541 86.98312225 11.48649628 87.89870911 11.37597656 88.84204102 C11.28367264 89.64629517 11.19136871 90.45054932 11.0962677 91.2791748 C10.77514648 93.11352539 10.77514648 93.11352539 9.77514648 94.11352539 C8.06742291 94.20066371 6.35616 94.22052546 4.64624023 94.21118164 C3.09453125 94.20634766 3.09453125 94.20634766 1.51147461 94.20141602 C0.42286133 94.19303711 -0.66575195 94.1846582 -1.78735352 94.17602539 C-3.42607422 94.16925781 -3.42607422 94.16925781 -5.09790039 94.16235352 C-7.80693847 94.15052366 -10.51586951 94.13404082 -13.22485352 94.11352539 C-14.45989734 90.45978425 -14.07353714 87.45755765 -13.58813477 83.66430664 C-13.42498779 82.35768066 -13.26184082 81.05105469 -13.09375 79.70483398 C-12.90837267 78.27855299 -12.72290476 76.85228377 -12.53735352 75.42602539 C-12.35047415 73.94776876 -12.16436984 72.46941397 -11.97900391 70.9909668 C-11.59219734 67.91018457 -11.20202598 64.82985437 -10.80981445 61.74975586 C-9.97828016 55.19263645 -9.19749901 48.62948312 -8.41186523 42.06674194 C-7.15263539 31.57844776 -5.86952152 21.09280328 -4.53735352 10.61352539 C-4.41803467 9.65172363 -4.29871582 8.68992188 -4.17578125 7.69897461 C-4.06435791 6.83546387 -3.95293457 5.97195312 -3.83813477 5.08227539 C-3.74314697 4.33397461 -3.64815918 3.58567383 -3.55029297 2.81469727 C-3.05193737 0.20963966 -2.67817571 0.13665661 0 0 Z " fill="#76C7FA" transform="translate(311.224853515625,153.886474609375)"/>
<path d="M0 0 C1.98 0 3.96 0 6 0 C0.17093394 52.86206472 0.17093394 52.86206472 -2.75 74.625 C-2.86529053 75.49930664 -2.98058105 76.37361328 -3.09936523 77.27441406 C-3.87561179 82.87561179 -3.87561179 82.87561179 -5 84 C-5.66 87.3 -6.32 90.6 -7 94 C-23.83 94 -40.66 94 -58 94 C-58.33 92.68 -58.66 91.36 -59 90 C-43.16 90 -27.32 90 -11 90 C-10.34 82.74 -9.68 75.48 -9 68 C-17.58 68 -26.16 68 -35 68 C-35 59 -35 59 -34 54 C-29.05 53.67 -24.1 53.34 -19 53 C-17.515 42.605 -17.515 42.605 -16 32 C-20.95 32 -25.9 32 -31 32 C-31.0861953 27.00067249 -30.8372965 23.02377899 -30 18 C-21.09 17.67 -12.18 17.34 -3 17 C-2.01 11.39 -1.02 5.78 0 0 Z " fill="#FCFDFD" transform="translate(113,158)"/>
<path d="M0 0 C3.37857667 3.11184693 5.73985274 5.53220518 7 10 C7 11.32 7 12.64 7 14 C7.66 14 8.32 14 9 14 C8.40799338 24.71161981 7.34112769 35.29683795 6 45.9375 C5.81992942 47.39122864 5.64024077 48.84500464 5.4609375 50.29882812 C4.97876767 54.19982671 4.49004383 58.09998203 4 62 C3.89473999 63.09007858 3.89473999 63.09007858 3.78735352 64.20217896 C3.58821102 66.14233172 3.30050349 68.07294314 3 70 C1.0625 71.1875 1.0625 71.1875 -1 72 C-1.433125 73.0828125 -1.433125 73.0828125 -1.875 74.1875 C-4.56582457 80.91456141 -9.51886231 84.69821109 -15.75390625 88.0546875 C-23.29373764 91.22797306 -33.42224687 91.4783517 -41.1328125 88.98828125 C-45.14568177 87.04034325 -47.49377679 85.75933481 -50 82 C-48.8553125 82.4640625 -48.8553125 82.4640625 -47.6875 82.9375 C-39.29090104 86.25708564 -28.46326802 86.46664807 -19.98828125 83.03515625 C-12.21919475 78.99034697 -7.1894704 73.92444931 -4.13671875 65.6640625 C-1.02400386 54.77754169 -0.26903854 43.21324087 1 32 C-3.47944035 32.13810905 -7.95846783 32.28677416 -12.4375 32.4375 C-13.71689453 32.47681641 -14.99628906 32.51613281 -16.31445312 32.55664062 C-17.52939453 32.59853516 -18.74433594 32.64042969 -19.99609375 32.68359375 C-21.68496704 32.73858032 -21.68496704 32.73858032 -23.40795898 32.79467773 C-25.92853441 32.71218045 -25.92853441 32.71218045 -27 34 C-27.400383 36.85528607 -27.7518227 39.69736487 -28.0625 42.5625 C-28.15337891 43.36880859 -28.24425781 44.17511719 -28.33789062 45.00585938 C-28.56247449 47.00347377 -28.78173236 49.0016856 -29 51 C-28.01 51 -27.02 51 -26 51 C-25.5273523 59.19256018 -25.5273523 59.19256018 -27.5 62.5625 C-27.995 63.036875 -28.49 63.51125 -29 64 C-33.875 63.125 -33.875 63.125 -35 62 C-34.95630007 60.51632954 -34.83212044 59.03505978 -34.6796875 57.55859375 C-34.57881836 56.5619873 -34.47794922 55.56538086 -34.37402344 54.53857422 C-34.2505957 53.37084473 -34.12716797 52.20311523 -34 51 C-33.86174353 49.62652121 -33.72407897 48.25298276 -33.58691406 46.87939453 C-33.20260599 43.0630092 -32.79617002 39.24935343 -32.38037109 35.4362793 C-32.20883104 33.84174396 -32.04223579 32.24666958 -31.88037109 30.65112305 C-31.64317669 28.31934523 -31.38971865 25.98983432 -31.1328125 23.66015625 C-31.06393829 22.94972672 -30.99506409 22.23929718 -30.92410278 21.50733948 C-30.46462262 17.52035719 -29.77498993 14.95370042 -27 12 C-24.525 12.495 -24.525 12.495 -22 13 C-22 16.63 -22 20.26 -22 24 C-14.08 23.67 -6.16 23.34 2 23 C2.04125 20.504375 2.0825 18.00875 2.125 15.4375 C2.14320801 14.66591553 2.16141602 13.89433105 2.18017578 13.09936523 C2.21765201 8.35620505 1.50237785 4.50121869 0 0 Z " fill="#FDFCFC" transform="translate(238,163)"/>
<path d="M0 0 C4.46874027 3.54417332 5.85211962 7.59382287 7 13 C7.66984756 22.85110872 6.39810598 32.56816936 5.125 42.3125 C4.94848051 43.70758908 4.77269722 45.10277151 4.59765625 46.49804688 C4.24939655 49.26440027 3.89675634 52.03013488 3.54003906 54.79541016 C2.9712115 59.20987098 2.41793414 63.62622029 1.8671875 68.04296875 C1.78002472 68.74158524 1.69286194 69.44020172 1.60305786 70.1599884 C1.40187087 71.7733047 1.20090837 73.38664899 1 75 C-0.32 74.67 -1.64 74.34 -3 74 C-3.226875 74.556875 -3.45375 75.11375 -3.6875 75.6875 C-7.39854655 82.22601059 -13.34617126 85.50864133 -20.0625 88.25 C-29.13818293 90.47803928 -37.93662682 89.89255508 -46.109375 85.38671875 C-48 84 -48 84 -50 81 C-48.8553125 81.4640625 -48.8553125 81.4640625 -47.6875 81.9375 C-38.34763514 85.63000471 -27.59854725 85.17913747 -18.37109375 81.2578125 C-10.1283165 76.88520249 -6.90351956 71.13950281 -3.75 62.625 C-2.32645161 55.74451614 -1.9071318 49.33189631 -5.4765625 43.06640625 C-9.93134182 37.02389789 -15.71160845 32.06607699 -21.375 27.1875 C-28.79285998 20.76069014 -28.79285998 20.76069014 -29.375 15.8125 C-29 13 -29 13 -27 11 C-24.375 11.375 -24.375 11.375 -22 12 C-22 14.97 -22 17.94 -22 21 C-14.41 20.67 -6.82 20.34 1 20 C1.020625 17.4425 1.04125 14.885 1.0625 12.25 C1.071604 11.45110352 1.08070801 10.65220703 1.09008789 9.82910156 C1.10358903 6.37106862 0.93376884 3.321503 0 0 Z " fill="#FBFBFC" transform="translate(389,164)"/>
<path d="M0 0 C1.32 0 2.64 0 4 0 C4.11138159 5.45769811 3.91657981 10.61509359 3 16 C3.66 16 4.32 16 5 16 C4.91298828 17.66675781 4.91298828 17.66675781 4.82421875 19.3671875 C4.44876923 29.35257096 4.54398902 36.90179488 11.51416016 44.69238281 C16.50634323 50.03943362 21.68714251 55.1863242 27.41015625 59.75 C30 62 30 62 30.5 64.6875 C30 67 30 67 28 69 C25.375 68.625 25.375 68.625 23 68 C23 65.36 23 62.72 23 60 C15.41 60.33 7.82 60.66 0 61 C-0.33 65.29 -0.66 69.58 -1 74 C-1.33 74 -1.66 74 -2 74 C-2.33 71.36 -2.66 68.72 -3 66 C-3.08564209 66.81267334 -3.17128418 67.62534668 -3.25952148 68.46264648 C-3.64764956 72.12142841 -4.04248266 75.77945574 -4.4375 79.4375 C-4.57220703 80.71689453 -4.70691406 81.99628906 -4.84570312 83.31445312 C-4.97783203 84.52939453 -5.10996094 85.74433594 -5.24609375 86.99609375 C-5.36654053 88.12200928 -5.4869873 89.2479248 -5.61108398 90.40795898 C-6 93 -6 93 -7 94 C-8.70772358 94.08713831 -10.41898649 94.10700007 -12.12890625 94.09765625 C-13.68061523 94.09282227 -13.68061523 94.09282227 -15.26367188 94.08789062 C-16.35228516 94.07951172 -17.44089844 94.07113281 -18.5625 94.0625 C-20.2012207 94.05573242 -20.2012207 94.05573242 -21.87304688 94.04882812 C-24.58208495 94.03699826 -27.29101599 94.02051543 -30 94 C-30.33 92.68 -30.66 91.36 -31 90 C-21.1 89.505 -21.1 89.505 -11 89 C-10.83918945 87.62787354 -10.67837891 86.25574707 -10.51269531 84.84204102 C-5.10082266 38.68132356 -5.10082266 38.68132356 -2.93762207 20.70578003 C-2.77198917 19.3278703 -2.60702229 17.94988034 -2.44274902 16.57180786 C-2.21769137 14.68565875 -1.98978268 12.79985047 -1.76171875 10.9140625 C-1.63756592 9.8823291 -1.51341309 8.8505957 -1.38549805 7.78759766 C-1.02257804 5.16326539 -0.55018432 2.59088418 0 0 Z " fill="#F9FAFC" transform="translate(332,158)"/>
<path d="M0 0 C5.87208316 5.56302615 7.37350568 9.15206778 7.8125 17.1875 C7.85745605 18.00831055 7.90241211 18.82912109 7.94873047 19.67480469 C8.31618509 29.94449493 6.73382977 39.99162238 5.35791016 50.14208984 C4.6150315 56.07397086 4.28149349 62.03039663 4 68 C3.34 68 2.68 68 2 68 C1.74347656 68.6290625 1.48695313 69.258125 1.22265625 69.90625 C-2.61026733 78.47547983 -8.03600937 84.39465266 -16.5625 88.5 C-25.21017015 91.50847183 -35.65183396 91.63112547 -43.9375 87.625 C-47.78621495 85.42757009 -47.78621495 85.42757009 -49 83 C-47.99710938 83.32355469 -46.99421875 83.64710938 -45.9609375 83.98046875 C-37.10957605 86.4970323 -26.25723263 86.31517462 -18 82 C-10.75670998 77.64610983 -5.71085223 72.05541861 -3 64 C-2.37634357 60.97515372 -1.93247837 57.93235729 -1.5 54.875 C-1.37254395 54.00423828 -1.24508789 53.13347656 -1.11376953 52.23632812 C-0.11045887 45.20682747 0.68236823 38.16182055 1.35351562 31.09326172 C1.68695983 27.63340264 2.15261924 24.36354806 3 21 C3.57022512 13.42258544 2.97474201 7.01189188 0 0 Z " fill="#EEA9A6" transform="translate(279,270)"/>
<path d="M0 0 C1.32 0 2.64 0 4 0 C4.31143134 7.94534394 3.13998043 15.70984389 2.1015625 23.56640625 C1.90413569 25.08839873 1.70715292 26.61044886 1.5105896 28.1325531 C0.9930727 32.1304085 0.4694379 36.1274393 -0.05548096 40.12432861 C-0.58245567 44.14554328 -1.10341894 48.16753599 -1.625 52.18945312 C-2.56915414 59.46069229 -3.51490966 66.73171018 -4.47576904 74.00076294 C-4.84176577 76.77471361 -5.19608222 79.54989855 -5.54425049 82.32614136 C-5.63302271 83.02187476 -5.72179493 83.71760817 -5.81325722 84.4344244 C-6.05843863 86.35629462 -6.29979998 88.27865107 -6.54092407 90.20103455 C-7 93 -7 93 -8 94 C-9.92667507 94.08748207 -11.85651861 94.10697334 -13.78515625 94.09765625 C-15.53989258 94.09282227 -15.53989258 94.09282227 -17.33007812 94.08789062 C-19.17762695 94.07532227 -19.17762695 94.07532227 -21.0625 94.0625 C-22.91584961 94.05573242 -22.91584961 94.05573242 -24.80664062 94.04882812 C-27.87114117 94.03699608 -30.93554721 94.02051173 -34 94 C-34 92.68 -34 91.36 -34 90 C-26.74 89.67 -19.48 89.34 -12 89 C-10.65862917 79.05360876 -9.37685279 69.10245771 -8.15234184 59.14107323 C-7.66192144 55.15559885 -7.16745817 51.17062475 -6.67382812 47.18554688 C-6.05082959 42.15348185 -5.42901997 37.12127648 -4.81079102 32.08862305 C-4.30591929 27.97961125 -3.79748633 23.87105404 -3.28663826 19.76278114 C-3.09353786 18.20438233 -2.90177093 16.64581769 -2.71136284 15.08708763 C-2.44694579 12.92375303 -2.17799793 10.76102763 -1.90795898 8.59838867 C-1.75632797 7.3690007 -1.60469696 6.13961273 -1.44847107 4.87297058 C-1 2 -1 2 0 0 Z " fill="#E8AAA7" transform="translate(181,158)"/>
<path d="M0 0 C1.32 0 2.64 0 4 0 C4.28781189 8.00276955 3.3872248 15.65057493 2.25 23.5625 C1.88109649 26.22634197 1.51368474 28.89034605 1.1484375 31.5546875 C1.05382233 32.24094711 0.95920715 32.92720673 0.86172485 33.63426208 C-0.21389469 41.47554339 -1.17586599 49.33006343 -2.125 57.1875 C-2.20969543 57.88361389 -2.29439087 58.57972778 -2.38165283 59.29693604 C-3.18875007 65.93688904 -3.97717256 72.57663493 -4.625 79.234375 C-4.71249512 80.1313208 -4.79999023 81.0282666 -4.89013672 81.95239258 C-5.04116013 83.55038351 -5.1840867 85.14917148 -5.31689453 86.7487793 C-5.78355242 91.78355242 -5.78355242 91.78355242 -8 94 C-10.33837891 94.22705078 -10.33837891 94.22705078 -13.2265625 94.1953125 C-14.2578125 94.18886719 -15.2890625 94.18242187 -16.3515625 94.17578125 C-17.97191406 94.15064453 -17.97191406 94.15064453 -19.625 94.125 C-20.71296875 94.11597656 -21.8009375 94.10695313 -22.921875 94.09765625 C-25.61480152 94.07403409 -28.30729255 94.04109556 -31 94 C-31 92.68 -31 91.36 -31 90 C-24.4 90 -17.8 90 -11 90 C-10.86464844 88.54464844 -10.72929687 87.08929688 -10.58984375 85.58984375 C-8.85780971 67.70385525 -6.65104086 49.88663919 -4.375 32.0625 C-4.21716034 30.82402313 -4.05932068 29.58554626 -3.896698 28.30953979 C-3.44082748 24.73866729 -2.98274456 21.16808823 -2.5234375 17.59765625 C-2.3849791 16.51743195 -2.24652069 15.43720764 -2.10386658 14.32424927 C-1.48371219 9.53318508 -0.84646294 4.75765266 0 0 Z " fill="#E9AAA7" transform="translate(456,158)"/>
<path d="M0 0 C1.32 0 2.64 0 4 0 C4.08479366 5.88071084 3.84508011 11.50957929 3.08203125 17.3359375 C2.98454086 18.11748199 2.88705048 18.89902649 2.78660583 19.70425415 C2.46678199 22.26180932 2.13962973 24.81837 1.8125 27.375 C1.35274042 31.0283062 0.89691769 34.68209947 0.44140625 38.3359375 C0.32344696 39.27838318 0.20548767 40.22082886 0.08395386 41.1918335 C-0.78873166 48.19885679 -1.61126905 55.21076748 -2.41015625 62.2265625 C-2.57991219 63.71317886 -2.57991219 63.71317886 -2.75309753 65.22982788 C-3.19607964 69.11484631 -3.63820848 72.99993598 -4.07260132 76.88592529 C-4.37285722 79.57021368 -4.67818418 82.2538832 -4.984375 84.9375 C-5.0727211 85.74281158 -5.1610672 86.54812317 -5.25209045 87.37783813 C-5.88649451 92.88649451 -5.88649451 92.88649451 -7 94 C-8.70772358 94.08713831 -10.41898649 94.10700007 -12.12890625 94.09765625 C-13.68061523 94.09282227 -13.68061523 94.09282227 -15.26367188 94.08789062 C-16.35228516 94.07951172 -17.44089844 94.07113281 -18.5625 94.0625 C-20.2012207 94.05573242 -20.2012207 94.05573242 -21.87304688 94.04882812 C-24.58208495 94.03699826 -27.29101599 94.02051543 -30 94 C-30.33 92.68 -30.66 91.36 -31 90 C-21.1 89.505 -21.1 89.505 -11 89 C-10.83918945 87.62787354 -10.67837891 86.25574707 -10.51269531 84.84204102 C-5.10082266 38.68132356 -5.10082266 38.68132356 -2.93762207 20.70578003 C-2.77198917 19.3278703 -2.60702229 17.94988034 -2.44274902 16.57180786 C-2.21769137 14.68565875 -1.98978268 12.79985047 -1.76171875 10.9140625 C-1.63756592 9.8823291 -1.51341309 8.8505957 -1.38549805 7.78759766 C-1.02257804 5.16326539 -0.55018432 2.59088418 0 0 Z " fill="#EAAAA7" transform="translate(332,158)"/>
<path d="M0 0 C1.58976904 1.58976904 1.18016039 3.16601105 1.203125 5.37890625 C1.12798786 13.12429259 0.11143755 20.75217066 -0.91650391 28.41821289 C-1.25226683 30.95462401 -1.56189593 33.49343368 -1.87109375 36.03320312 C-2.08435033 37.65645931 -2.29913883 39.27951513 -2.515625 40.90234375 C-2.60434875 41.65652084 -2.69307251 42.41069794 -2.78448486 43.18772888 C-3.26870798 46.60809823 -3.81588543 48.76337646 -5.95605469 51.51391602 C-8 53 -8 53 -10.1875 52.875 C-12 52 -12 52 -13 50 C-13.20389563 44.17595576 -12.73110321 38.56757734 -12.01171875 32.79296875 C-11.90785355 31.9457576 -11.80398834 31.09854645 -11.69697571 30.22566223 C-11.4768976 28.44966215 -11.25405591 26.67400253 -11.02856445 24.89868164 C-10.68647029 22.17931469 -10.36356923 19.45807313 -10.04101562 16.73632812 C-9.82409074 15.00506082 -9.60603181 13.27393515 -9.38671875 11.54296875 C-9.29283371 10.73047165 -9.19894867 9.91797455 -9.10221863 9.08085632 C-8.25055192 2.64490096 -6.95637956 -0.73225048 0 0 Z " fill="#EEA4A0" transform="translate(257,282)"/>
<path d="M0 0 C1.32 0 2.64 0 4 0 C2.64535247 34.70700404 2.64535247 34.70700404 -6.890625 45.05078125 C-15.536462 53.02013101 -23.68481841 54.41170588 -35.1796875 54.35546875 C-40.50417777 53.86004072 -44.71844301 52.19990049 -49 49 C-49.66 48.01 -50.32 47.02 -51 46 C-50.236875 46.309375 -49.47375 46.61875 -48.6875 46.9375 C-40.29090104 50.25708564 -29.46326802 50.46664807 -20.98828125 47.03515625 C-13.20897469 42.98502612 -8.04823785 37.87594027 -5.13671875 29.5234375 C-2.49360718 19.89980051 -1.37486525 9.86782715 0 0 Z " fill="#EBABA8" transform="translate(239,199)"/>
<path d="M0 0 C1.32 0.33 2.64 0.66 4 1 C1.35909063 37.80096471 1.35909063 37.80096471 -9 47 C-18.1115962 53.51519445 -27.94647147 55.22408954 -39 54 C-44.12129671 52.29944171 -47.97505282 50.53742077 -51 46 C-50.236875 46.309375 -49.47375 46.61875 -48.6875 46.9375 C-40.02484581 50.36227026 -30.04577099 50.12438194 -21.25 47.04296875 C-14.79789339 44.0521485 -10.59071797 40.1439539 -7 34 C-5.73804082 30.4540048 -5.73804082 30.4540048 -4.875 26.625 C-4.70959717 25.94034668 -4.54419434 25.25569336 -4.3737793 24.55029297 C-2.89268577 18.13343884 -2.07826273 11.67567361 -1.39453125 5.1328125 C-1 2 -1 2 0 0 Z " fill="#EDA7A3" transform="translate(343,306)"/>
<path d="M0 0 C0.33 0.99 0.66 1.98 1 3 C3.01508358 3.73323796 3.01508358 3.73323796 5 4 C3.66178919 19.95288155 1.62492689 35.77718878 -0.54492188 51.63623047 C-1.41727755 58.0843616 -2.20915434 64.54142713 -3 71 C4.26 71 11.52 71 19 71 C19 71.33 19 71.66 19 72 C10.09 72 1.18 72 -8 72 C-6.83921551 58.65097842 -5.29440691 45.42146728 -3.47070312 32.14746094 C-2.01850627 21.45326413 -0.90204823 10.75336439 0 0 Z " fill="#EFA29F" transform="translate(194,262)"/>
<path d="M0 0 C3.86385159 3.60626148 5.79569258 5.98068246 6.3359375 11.3203125 C6.43562644 21.03001522 5.23346058 28.10361683 -0.1875 36.3125 C-8.50727059 44.262503 -18.18838451 46.53514075 -29.47265625 46.390625 C-34.62984095 45.8195082 -38.82092423 44.06523119 -43 41 C-43.66 40.01 -44.32 39.02 -45 38 C-44.236875 38.309375 -43.47375 38.61875 -42.6875 38.9375 C-33.34763514 42.63000471 -22.59854725 42.17913747 -13.37109375 38.2578125 C-5.1283165 33.88520249 -1.90351956 28.13950281 1.25 19.625 C2.65915702 12.81407438 2.73458324 6.4946352 0 0 Z " fill="#EAABA8" transform="translate(384,207)"/>
<path d="M0 0 C1.32 0 2.64 0 4 0 C4.26439552 8.25096369 3.23421989 16.27292151 2.1875 24.4375 C1.91241683 26.63196952 1.6393212 28.82668086 1.36630249 31.02140808 C1.1818907 32.50277893 0.99685169 33.98407183 0.81118774 35.46528625 C-0.08911311 42.65909842 -0.92675078 49.85945018 -1.75 57.0625 C-1.87737549 58.17359131 -2.00475098 59.28468262 -2.13598633 60.42944336 C-2.42486883 62.95286339 -2.71294593 65.47637144 -3 68 C-4.65 68 -6.3 68 -8 68 C-7.3292234 60.22684764 -6.51972586 52.47692008 -5.625 44.7265625 C-5.49561035 43.59979095 -5.3662207 42.47301941 -5.23291016 41.31210327 C-4.96128813 38.95066676 -4.6889812 36.58930893 -4.41601562 34.22802734 C-3.99879245 30.61454162 -3.58523139 27.0006486 -3.171875 23.38671875 C-2.9064716 21.08330779 -2.64085416 18.77992148 -2.375 16.4765625 C-2.25205566 15.39944 -2.12911133 14.3223175 -2.00244141 13.21255493 C-1.88562012 12.20735809 -1.76879883 11.20216125 -1.6484375 10.16650391 C-1.54708496 9.2870108 -1.44573242 8.4075177 -1.34130859 7.50137329 C-0.99637536 4.97343582 -0.52674149 2.49582965 0 0 Z " fill="#E8ABA8" transform="translate(274,158)"/>
<path d="M0 0 C2.0625 0.4375 2.0625 0.4375 4 1 C2.26639344 20.73360656 2.26639344 20.73360656 1 22 C-0.59610982 22.09333705 -2.19633428 22.11745372 -3.79516602 22.11352539 C-4.81614883 22.11344986 -5.83713165 22.11337433 -6.88905334 22.11329651 C-7.9994548 22.10813522 -9.10985626 22.10297394 -10.25390625 22.09765625 C-11.38448959 22.0962413 -12.51507294 22.09482635 -13.67991638 22.09336853 C-17.30747065 22.08775019 -20.93496424 22.07519458 -24.5625 22.0625 C-27.01497307 22.05748736 -29.4674471 22.05292405 -31.91992188 22.04882812 C-37.94663545 22.0377748 -43.97331339 22.02101884 -50 22 C-50.33 20.68 -50.66 19.36 -51 18 C-35.16 17.67 -19.32 17.34 -3 17 C-2.34 11.72 -1.68 6.44 -1 1 C-0.67 0.67 -0.34 0.34 0 0 Z " fill="#EBA9A5" transform="translate(294,230)"/>
<path d="M0 0 C1.32 0 2.64 0 4 0 C4.05540086 1.79129459 4.09340527 3.58312742 4.125 5.375 C4.14820313 6.37273437 4.17140625 7.37046875 4.1953125 8.3984375 C3.94662537 12.98422826 2.90066903 17.49665486 2 22 C-14.83 22 -31.66 22 -49 22 C-49.33 20.68 -49.66 19.36 -50 18 C-34.16 18 -18.32 18 -2 18 C-1.34 12.06 -0.68 6.12 0 0 Z " fill="#ECAAA5" transform="translate(104,230)"/>
<path d="M0 0 C1.32 0.33 2.64 0.66 4 1 C2.63106796 20.36893204 2.63106796 20.36893204 1 22 C-0.59610982 22.09333705 -2.19633428 22.11745372 -3.79516602 22.11352539 C-4.81614883 22.11344986 -5.83713165 22.11337433 -6.88905334 22.11329651 C-7.9994548 22.10813522 -9.10985626 22.10297394 -10.25390625 22.09765625 C-11.38448959 22.0962413 -12.51507294 22.09482635 -13.67991638 22.09336853 C-17.30747065 22.08775019 -20.93496424 22.07519458 -24.5625 22.0625 C-27.01497307 22.05748736 -29.4674471 22.05292405 -31.91992188 22.04882812 C-37.94663545 22.0377748 -43.97331339 22.02101884 -50 22 C-50.33 20.68 -50.66 19.36 -51 18 C-35.16 17.67 -19.32 17.34 -3 17 C-2.01 11.39 -1.02 5.78 0 0 Z " fill="#EDA8A3" transform="translate(214,337)"/>
<path d="M0 0 C1.1446875 0.3403125 1.1446875 0.3403125 2.3125 0.6875 C1.73905063 3.55474686 1.4510485 4.5489515 -0.6875 6.6875 C-0.96326987 9.0329654 -1.13721306 11.39107311 -1.25 13.75 C-1.59027778 20.59027778 -1.59027778 20.59027778 -2.6875 21.6875 C-3.087883 24.54278607 -3.4393227 27.38486487 -3.75 30.25 C-3.84087891 31.05630859 -3.93175781 31.86261719 -4.02539062 32.69335938 C-4.24997449 34.69097377 -4.46923236 36.6891856 -4.6875 38.6875 C-3.6975 38.6875 -2.7075 38.6875 -1.6875 38.6875 C-1.80192461 40.29245567 -1.92944694 41.89648119 -2.0625 43.5 C-2.13210938 44.39332031 -2.20171875 45.28664063 -2.2734375 46.20703125 C-2.6875 48.6875 -2.6875 48.6875 -4.6875 51.6875 C-7.3125 51.875 -7.3125 51.875 -9.6875 51.6875 C-13.32782168 44.40685664 -9.00419172 29.60088756 -8.06787109 21.34521484 C-7.8956887 19.80610835 -7.72914263 18.2663622 -7.56787109 16.72607422 C-7.33125405 14.46943995 -7.07772921 12.21528196 -6.8203125 9.9609375 C-6.75143829 9.27349457 -6.68256409 8.58605164 -6.61160278 7.8777771 C-6.27494951 5.07256915 -5.93831074 3.04045086 -4.28466797 0.71337891 C-2.6875 -0.3125 -2.6875 -0.3125 0 0 Z " fill="#EEA4A0" transform="translate(317.6875,282.3125)"/>
<path d="M0 0 C1.65 0.33 3.3 0.66 5 1 C4.38722388 3.96175123 3.74627478 5.38058783 2 8 C1.56275558 10.34448515 1.21955224 12.70699005 0.9296875 15.07421875 C0.84373322 15.7580513 0.75777893 16.44188385 0.66921997 17.1464386 C0.39700566 19.32594296 0.13587065 21.50661174 -0.125 23.6875 C-0.30786452 25.167408 -0.49144985 26.64722712 -0.67578125 28.12695312 C-1.12554927 31.75030899 -1.56539243 35.37479083 -2 39 C-1.01 39 -0.02 39 1 39 C1.4726477 47.19256018 1.4726477 47.19256018 -0.5 50.5625 C-0.995 51.036875 -1.49 51.51125 -2 52 C-6.875 51.125 -6.875 51.125 -8 50 C-7.95630007 48.51632954 -7.83212044 47.03505978 -7.6796875 45.55859375 C-7.57881836 44.5619873 -7.47794922 43.56538086 -7.37402344 42.53857422 C-7.18888184 40.78697998 -7.18888184 40.78697998 -7 39 C-6.86174353 37.62652121 -6.72407897 36.25298276 -6.58691406 34.87939453 C-6.20260599 31.0630092 -5.79617002 27.24935343 -5.38037109 23.4362793 C-5.20883104 21.84174396 -5.04223579 20.24666958 -4.88037109 18.65112305 C-4.64317669 16.31934523 -4.38971865 13.98983432 -4.1328125 11.66015625 C-4.06393829 10.94972672 -3.99506409 10.23929718 -3.92410278 9.50733948 C-3.46462262 5.52035719 -2.77498993 2.95370042 0 0 Z " fill="#E8AAA7" transform="translate(211,175)"/>
<path d="M0 0 C2.64 0 5.28 0 8 0 C7.67 1.32 7.34 2.64 7 4 C6.01 4 5.02 4 4 4 C4.02835937 5.25296875 4.05671875 6.5059375 4.0859375 7.796875 C4.0837608 13.35616447 3.39970967 18.75254103 2.625 24.25 C2.43550781 25.70019531 2.43550781 25.70019531 2.2421875 27.1796875 C2.11328125 28.11554688 1.984375 29.05140625 1.8515625 30.015625 C1.73635254 30.85383789 1.62114258 31.69205078 1.50244141 32.55566406 C1 35 1 35 -1 40 C-8.59 40 -16.18 40 -24 40 C-24 38.68 -24 37.36 -24 36 C-17.73 35.67 -11.46 35.34 -5 35 C-4.35179839 30.85452457 -3.7063673 26.70864894 -3.0625 22.5625 C-2.88009766 21.39783203 -2.69769531 20.23316406 -2.50976562 19.03320312 C-1.52816547 12.69742028 -0.64810684 6.37873575 0 0 Z " fill="#EAAAA7" transform="translate(417,212)"/>
<path d="M0 0 C0.33 0 0.66 0 1 0 C4.0317436 14.98757116 2.1759311 31.18995859 -1 46 C-2 47 -2 47 -4.13305664 47.11352539 C-5.50772095 47.10567017 -5.50772095 47.10567017 -6.91015625 47.09765625 C-7.89951172 47.09443359 -8.88886719 47.09121094 -9.90820312 47.08789062 C-10.94912109 47.07951172 -11.99003906 47.07113281 -13.0625 47.0625 C-14.10728516 47.05798828 -15.15207031 47.05347656 -16.22851562 47.04882812 C-18.8190666 47.03699913 -21.40950559 47.02051689 -24 47 C-24.33 45.68 -24.66 44.36 -25 43 C-18.73 42.67 -12.46 42.34 -6 42 C-4.35117228 31.88219356 -2.76525449 21.79987257 -1.64697266 11.60961914 C-1.21786858 7.71345056 -0.68224199 3.86005337 0 0 Z " fill="#E9AAA6" transform="translate(137,205)"/>
<path d="M0 0 C1.32 0 2.64 0 4 0 C3.88562349 2.72998676 3.75888594 5.4584582 3.625 8.1875 C3.57859375 9.34088867 3.57859375 9.34088867 3.53125 10.51757812 C3.49257812 11.26845703 3.45390625 12.01933594 3.4140625 12.79296875 C3.3826416 13.4789917 3.3512207 14.16501465 3.31884766 14.87182617 C3 17 3 17 1 22 C-7.91 22 -16.82 22 -26 22 C-26.33 25.3 -26.66 28.6 -27 32 C-28.32 32 -29.64 32 -31 32 C-31.0861953 27.00067249 -30.8372965 23.02377899 -30 18 C-21.09 17.67 -12.18 17.34 -3 17 C-2.01 11.39 -1.02 5.78 0 0 Z " fill="#EAACA9" transform="translate(113,158)"/>
<path d="M0 0 C-0.33145224 10.52360877 -1.53109197 20.88206898 -2.9375 31.3125 C-3.10733398 32.60631592 -3.27716797 33.90013184 -3.45214844 35.2331543 C-3.62133789 36.45172119 -3.79052734 37.67028809 -3.96484375 38.92578125 C-4.19095337 40.57187378 -4.19095337 40.57187378 -4.42163086 42.2512207 C-5 45 -5 45 -7 48 C-7.99 48 -8.98 48 -10 48 C-9.14287431 39.52836888 -8.26900246 31.05873259 -7.37597656 22.59082031 C-7.06285774 19.60033223 -6.76047626 16.60905107 -6.4609375 13.6171875 C-6.30844529 12.20300013 -6.15492691 10.78892272 -6 9.375 C-5.814375 7.59222656 -5.814375 7.59222656 -5.625 5.7734375 C-4.84560535 2.31487372 -3.80273976 0 0 0 Z " fill="#FEF4F4" transform="translate(258,286)"/>
<path d="M0 0 C1.32 0.33 2.64 0.66 4 1 C3.88513575 3.37587624 3.75841844 5.75015171 3.625 8.125 C3.57859375 9.12273437 3.57859375 9.12273437 3.53125 10.140625 C3.26817448 14.6129089 2.46458188 17.60625436 1 22 C-3.95 22 -8.9 22 -14 22 C-14.33 25.3 -14.66 28.6 -15 32 C-16.32 32 -17.64 32 -19 32 C-19.02736707 30.60427948 -19.04655989 29.20839779 -19.0625 27.8125 C-19.07410156 27.03519531 -19.08570312 26.25789063 -19.09765625 25.45703125 C-19 23 -19 23 -18 18 C-13.05 17.67 -8.1 17.34 -3 17 C-2.01 11.39 -1.02 5.78 0 0 Z " fill="#ECABA7" transform="translate(97,194)"/>
<path d="M0 0 C3.95443248 3.64224044 6.69415713 6.45790262 7.17089844 11.97924805 C7.23231448 14.2398116 7.22372251 16.48895304 7.1875 18.75 C7.18685547 19.52988281 7.18621094 20.30976563 7.18554688 21.11328125 C7.14057707 26.85942293 7.14057707 26.85942293 6 28 C4.21928754 28.08726223 2.4351686 28.10699041 0.65234375 28.09765625 C-0.42724609 28.09443359 -1.50683594 28.09121094 -2.61914062 28.08789062 C-3.75544922 28.07951172 -4.89175781 28.07113281 -6.0625 28.0625 C-7.20267578 28.05798828 -8.34285156 28.05347656 -9.51757812 28.04882812 C-12.34510351 28.03699747 -15.1725264 28.0205141 -18 28 C-18 26.68 -18 25.36 -18 24 C-8.1 23.505 -8.1 23.505 2 23 C2.04125 20.504375 2.0825 18.00875 2.125 15.4375 C2.14320801 14.66591553 2.16141602 13.89433105 2.18017578 13.09936523 C2.21765201 8.35620505 1.50237785 4.50121869 0 0 Z " fill="#EAACA8" transform="translate(238,163)"/>
<path d="M0 0 C4.11836591 3.84380819 5.86787973 6.09979961 6.265625 11.8203125 C6.27091007 13.25520805 6.2654006 14.69017736 6.25 16.125 C6.25773437 16.85332031 6.26546875 17.58164062 6.2734375 18.33203125 C6.25342069 23.74657931 6.25342069 23.74657931 4 26 C1.66162109 26.22705078 1.66162109 26.22705078 -1.2265625 26.1953125 C-2.7734375 26.18564453 -2.7734375 26.18564453 -4.3515625 26.17578125 C-5.43179687 26.15902344 -6.51203125 26.14226562 -7.625 26.125 C-8.71296875 26.11597656 -9.8009375 26.10695313 -10.921875 26.09765625 C-13.61480152 26.07403409 -16.30729255 26.04109556 -19 26 C-19 24.68 -19 23.36 -19 22 C-18.42967041 21.97494385 -17.85934082 21.9498877 -17.27172852 21.92407227 C-14.70173843 21.80843451 -12.13214473 21.68556376 -9.5625 21.5625 C-8.21575195 21.50352539 -8.21575195 21.50352539 -6.84179688 21.44335938 C-5.98779297 21.40146484 -5.13378906 21.35957031 -4.25390625 21.31640625 C-3.06776733 21.26141968 -3.06776733 21.26141968 -1.85766602 21.20532227 C0.01401441 21.19436743 0.01401441 21.19436743 1 20 C1.10046239 17.3850232 1.13872551 14.80220911 1.125 12.1875 C1.12886719 11.46240234 1.13273437 10.73730469 1.13671875 9.99023438 C1.13037891 6.52551359 1.0945836 3.3098123 0 0 Z " fill="#EDAAA5" transform="translate(343,272)"/>
<path d="M0 0 C4.43811627 3.84636743 5.80505829 7.53456069 6.265625 13.359375 C6.26046875 14.47828125 6.2553125 15.5971875 6.25 16.75 C6.25515625 17.87921875 6.2603125 19.0084375 6.265625 20.171875 C6 23 6 23 4 25 C1.75341797 25.22705078 1.75341797 25.22705078 -1.0078125 25.1953125 C-1.99394531 25.18886719 -2.98007812 25.18242187 -3.99609375 25.17578125 C-5.54490234 25.15064453 -5.54490234 25.15064453 -7.125 25.125 C-8.16527344 25.11597656 -9.20554687 25.10695312 -10.27734375 25.09765625 C-12.85179092 25.07403747 -15.42578212 25.04110149 -18 25 C-18 23.68 -18 22.36 -18 21 C-11.73 20.67 -5.46 20.34 1 20 C1.020625 17.4425 1.04125 14.885 1.0625 12.25 C1.071604 11.45110352 1.08070801 10.65220703 1.09008789 9.82910156 C1.10358903 6.37106862 0.93376884 3.321503 0 0 Z " fill="#EAAEAB" transform="translate(389,164)"/>
<path d="M0 0 C1.32 0 2.64 0 4 0 C3.40652032 10.72948787 2.34387477 21.34033317 1 32 C-0.65 32 -2.3 32 -4 32 C-3.86722656 30.82824219 -3.73445313 29.65648437 -3.59765625 28.44921875 C-3.4190085 26.86200867 -3.2406418 25.27476694 -3.0625 23.6875 C-2.9704126 22.86822021 -2.8783252 22.04894043 -2.78344727 21.20483398 C-2.18577347 15.83106369 -1.65952941 10.45794473 -1.24609375 5.06640625 C-1 3 -1 3 0 0 Z " fill="#E9ABA8" transform="translate(424,158)"/>
<path d="M0 0 C0.99 0.33 1.98 0.66 3 1 C5.40473793 13.70075181 7.43619316 26.12297903 5 39 C4.67 39 4.34 39 4 39 C3.42363908 34.73247658 2.85424905 30.46409526 2.29101562 26.19482422 C2.09887134 24.74568233 1.90489719 23.29678175 1.70898438 21.84814453 C1.42604866 19.7535541 1.14992991 17.6581545 0.875 15.5625 C0.70742187 14.30566406 0.53984375 13.04882812 0.3671875 11.75390625 C-0.02062944 7.78909693 -0.06170681 3.98008902 0 0 Z " fill="#EAACA9" transform="translate(147,158)"/>
<path d="M0 0 C1.89111536 5.47741972 0.28531866 11.40220083 -0.46875 17.00927734 C-0.74973632 19.12301646 -1.00821881 21.23874497 -1.265625 23.35546875 C-1.44134301 24.69809606 -1.61838118 26.0405514 -1.796875 27.3828125 C-1.95510742 28.60371582 -2.11333984 29.82461914 -2.27636719 31.08251953 C-3 34 -3 34 -6 36 C-5.89042969 35.37738281 -5.78085938 34.75476563 -5.66796875 34.11328125 C-4.29984982 26.13814892 -3.14786368 18.14126395 -2.0534668 10.12426758 C-1.93140869 9.24665771 -1.80935059 8.36904785 -1.68359375 7.46484375 C-1.57587646 6.677146 -1.46815918 5.88944824 -1.35717773 5.07788086 C-1 3 -1 3 0 0 Z " fill="#ECF3F9" transform="translate(244,199)"/>
<path d="M0 0 C2.625 0.375 2.625 0.375 5 1 C5 1.99 5 2.98 5 4 C4.01 4.495 4.01 4.495 3 5 C2.59270772 7.32156597 2.25561323 9.6568787 2 12 C-0.87398748 9.66488517 -1.92491816 8.62568199 -2.375 4.875 C-2 2 -2 2 0 0 Z " fill="#EBACA8" transform="translate(362,175)"/>
<path d="M0 0 C0.99 0 1.98 0 3 0 C3.46882399 8.12628256 3.46882399 8.12628256 1.625 11.5625 C0 13 0 13 -2 13 C-1.34 8.71 -0.68 4.42 0 0 Z " fill="#F3F6FA" transform="translate(209,214)"/>
<path d="M0 0 C0.99 0 1.98 0 3 0 C2.88541307 1.43836751 2.75790884 2.87570966 2.625 4.3125 C2.55539062 5.11300781 2.48578125 5.91351563 2.4140625 6.73828125 C2 9 2 9 0 12 C-0.66 12 -1.32 12 -2 12 C-1.85962479 10.18706911 -1.71255111 8.3746557 -1.5625 6.5625 C-1.48128906 5.55316406 -1.40007812 4.54382813 -1.31640625 3.50390625 C-1 1 -1 1 0 0 Z " fill="#FEF6F7" transform="translate(313,322)"/>
<path d="M0 0 C0.66 0 1.32 0 2 0 C1.67 4.62 1.34 9.24 1 14 C0.67 14 0.34 14 0 14 C-0.19393875 11.85473901 -0.37998676 9.70876323 -0.5625 7.5625 C-0.71912109 5.77005859 -0.71912109 5.77005859 -0.87890625 3.94140625 C-0.91886719 2.97074219 -0.95882813 2.00007812 -1 1 C-0.67 0.67 -0.34 0.34 0 0 Z " fill="#D7E8F5" transform="translate(335,174)"/>
<path d="M0 0 C1.32 0 2.64 0 4 0 C4 1.65 4 3.3 4 5 C2.68 4.67 1.36 4.34 0 4 C0 2.68 0 1.36 0 0 Z " fill="#E6AAA8" transform="translate(355,222)"/>
<path d="M0 0 C0.33 0 0.66 0 1 0 C1.33 3.3 1.66 6.6 2 10 C1.01 10 0.02 10 -1 10 C-0.67 6.7 -0.34 3.4 0 0 Z " fill="#D6ADB3" transform="translate(137,205)"/>
</svg>
